<?xml version="1.0" encoding="UTF-8"?>
<svg xmlns="http://www.w3.org/2000/svg" width="99" height="38" viewBox="0 0 99 38" fill="none">
  <path d="M69.4946 17.5695H67.0771V13.7207H69.6536C69.6324 13.445 69.6218 13.18 69.6218 12.9255C69.6218 12.6711 69.6218 12.4272 69.6218 12.1939C69.6218 11.0806 69.7119 10.137 69.8922 9.36301C70.0724 8.58902 70.3693 7.96346 70.7828 7.48634C71.2069 6.99862 71.7635 6.64873 72.4527 6.43668C73.1419 6.21402 74.0007 6.10269 75.0292 6.10269C75.5699 6.10269 76.1265 6.1398 76.6991 6.21402C77.2716 6.27764 77.876 6.38366 78.5121 6.5321V10.3332C78.3319 10.3014 78.1676 10.2854 78.0191 10.2854C77.8707 10.2748 77.7222 10.2695 77.5738 10.2695C76.3757 10.2695 75.7766 10.7149 75.7766 11.6055V13.7207H78.5121V17.5695H75.6494V31.2151H69.4946V17.5695Z" fill="white"></path>
  <path d="M79.495 13.7207H85.5862V31.2151H79.495V13.7207ZM79.495 6.38896H85.5862V11.4146H79.495V6.38896Z" fill="white"></path>
  <path d="M98.1949 31.1833C97.6754 31.3318 97.1347 31.4431 96.5727 31.5173C96.0214 31.6021 95.433 31.6445 94.8074 31.6445C92.8671 31.6445 91.4198 31.2734 90.4656 30.5313C89.522 29.7785 89.0501 28.6281 89.0501 27.0801V17.5695H86.6327V13.7207H89.3364L89.7976 7.53405H95.0141V13.7207H98.1949V17.5695H95.0141V25.6169C95.0141 26.1683 95.1467 26.5712 95.4117 26.8256C95.6768 27.0801 96.0956 27.2073 96.6682 27.2073C97.1135 27.2073 97.6224 27.1437 98.1949 27.0165V31.1833Z" fill="white"></path>
  <path d="M52.25 34.373V3.62732C52.25 2.13462 53.9554 1.28377 55.148 2.18144L75.5719 17.5543C76.5338 18.2782 76.5338 19.7221 75.5719 20.446L55.148 35.8189C53.9554 36.7165 52.25 35.8657 52.25 34.373Z" fill="#093A4A"></path>
  <path d="M2.41741 17.5695H0V13.7207H2.57645C2.55525 13.445 2.54464 13.18 2.54464 12.9255C2.54464 12.6711 2.54464 12.4272 2.54464 12.1939C2.54464 11.0806 2.63477 10.137 2.81501 9.36302C2.99526 8.58902 3.29213 7.96346 3.70564 7.48634C4.12974 6.99862 4.68638 6.64873 5.37556 6.43668C6.06473 6.21402 6.92355 6.10269 7.95201 6.10269C8.49275 6.10269 9.04939 6.1398 9.62193 6.21402C10.1945 6.27764 10.7988 6.38366 11.435 6.5321V10.3332C11.2547 10.3014 11.0904 10.2854 10.942 10.2854C10.7935 10.2748 10.6451 10.2695 10.4967 10.2695C9.29855 10.2695 8.6995 10.7149 8.6995 11.6055V13.7207H11.435V17.5695H8.57227V31.2151H2.41741V17.5695Z" fill="white"></path>
  <path d="M27.4313 29.3862C27.4313 29.7149 27.4525 30.0276 27.4949 30.3245C27.5479 30.6214 27.6168 30.9183 27.7016 31.2151H21.674C21.5892 31.0031 21.5309 30.7698 21.4991 30.5154C21.4672 30.2609 21.4513 29.9958 21.4513 29.7202C19.8291 30.9819 18.0267 31.6127 16.044 31.6127C15.3124 31.6127 14.6497 31.4908 14.056 31.2469C13.4622 31.0137 12.948 30.6797 12.5133 30.245C12.0892 29.8103 11.7605 29.2854 11.5272 28.6705C11.294 28.0555 11.1773 27.3717 11.1773 26.6189C11.1773 24.5726 12.0415 22.9981 13.7697 21.8954C15.4979 20.7927 18.0585 20.2308 21.4513 20.2096V18.6828C21.4513 18.2056 21.2711 17.824 20.9106 17.5377C20.5607 17.2514 20.0677 17.1083 19.4315 17.1083C18.8272 17.1083 18.3182 17.2885 17.9047 17.649C17.4912 18.0095 17.2156 18.5237 17.0777 19.1917L11.9725 18.0943C12.4603 16.5145 13.3244 15.3535 14.5649 14.6113C15.816 13.8692 17.4912 13.4981 19.5906 13.4981C22.2412 13.4981 24.208 13.9222 25.491 14.7704C26.7845 15.6186 27.4313 16.9333 27.4313 18.7146V29.3862ZM21.4513 23.2313C20.0306 23.3161 18.9597 23.5865 18.2387 24.0424C17.5283 24.4983 17.1732 25.1186 17.1732 25.9032C17.1732 26.5288 17.3322 27.0059 17.6503 27.3346C17.9684 27.6632 18.4296 27.8276 19.0339 27.8276C19.458 27.8276 19.8609 27.7587 20.2426 27.6208C20.6349 27.4724 21.0378 27.2497 21.4513 26.9529V23.2313Z" fill="white"></path>
  <path d="M32.3424 25.5851C32.915 26.3803 33.62 26.9847 34.4576 27.3982C35.2953 27.8117 36.2283 28.0184 37.2568 28.0184C38.0626 28.0184 38.6881 27.8753 39.1334 27.589C39.5787 27.3027 39.8014 26.9476 39.8014 26.5235C39.8014 26.1842 39.7007 25.9297 39.4992 25.7601C39.2978 25.5904 39.0115 25.4632 38.6404 25.3784C38.2799 25.2935 37.8399 25.2299 37.3204 25.1875C36.8008 25.1345 36.2177 25.0497 35.5709 24.9331C33.4186 24.5408 31.8229 23.9046 30.7838 23.0246C29.7448 22.1445 29.2252 20.957 29.2252 19.4621C29.2252 18.5608 29.3949 17.7338 29.7342 16.981C30.0734 16.2283 30.5665 15.5815 31.2132 15.0408C31.8706 14.5 32.6711 14.0812 33.6147 13.7843C34.5584 13.4875 35.6345 13.339 36.8433 13.339C38.5291 13.339 40.0081 13.6253 41.2805 14.1978C42.5528 14.7704 43.5706 15.6027 44.334 16.6948L40.7238 18.9372C39.6636 17.5907 38.3594 16.9174 36.8114 16.9174C36.0905 16.9174 35.5285 17.0553 35.1256 17.3309C34.7227 17.596 34.5213 17.9141 34.5213 18.2852C34.5213 18.582 34.6326 18.8153 34.8552 18.9849C35.0779 19.144 35.4172 19.2818 35.8731 19.3985C36.329 19.5151 36.9069 19.6317 37.6066 19.7483C38.317 19.865 39.1599 20.0187 40.1354 20.2096C41.906 20.57 43.2049 21.1691 44.0319 22.0067C44.8589 22.8337 45.2724 23.9841 45.2724 25.4579C45.2724 27.4724 44.5567 29.0257 43.1253 30.1178C41.694 31.1992 39.6105 31.74 36.8751 31.74C34.8924 31.74 33.2118 31.4113 31.8335 30.7539C30.4551 30.086 29.4214 29.1423 28.7322 27.923L32.3424 25.5851Z" fill="white"></path>
  <path d="M57.2449 31.1833C56.7254 31.3318 56.1847 31.4431 55.6227 31.5173C55.0714 31.6021 54.4829 31.6445 53.8574 31.6445C51.9171 31.6445 50.4698 31.2735 49.5156 30.5313C48.5719 29.7785 48.1001 28.6281 48.1001 27.0801V17.5695H45.6827V13.7207H48.3864L48.8476 7.53405H54.0641V13.7207H57.2449V17.5695H54.0641V25.6169C54.0641 26.1683 54.1967 26.5712 54.4617 26.8256C54.7268 27.0801 55.1456 27.2073 55.7181 27.2073C56.1635 27.2073 56.6724 27.1437 57.2449 27.0165V31.1833Z" fill="white"></path>
</svg>
