<?xml version="1.0" encoding="utf-8"?>
<!-- Generator: Adobe Illustrator 25.4.1, SVG Export Plug-In . SVG Version: 6.00 Build 0)  -->
<svg version="1.1" id="Layer_1" xmlns="http://www.w3.org/2000/svg" xmlns:xlink="http://www.w3.org/1999/xlink" x="0px" y="0px"
	 viewBox="0 0 460.2 122.9" style="enable-background:new 0 0 460.2 122.9;" xml:space="preserve">
<style type="text/css">
	.st0{fill:#29235C;}
	.st1{fill:#F39200;}
	.st2{fill:#FFFFFF;}
</style>
<g>
	<rect y="1.5" class="st0" width="121.2" height="121.2"/>
	<g>
		<path class="st0" d="M184.7,23.2c0,13.5-10.2,21.9-26.4,21.9h-10.4v15.5h-16.8V1.2h27.2C174.5,1.2,184.7,9.6,184.7,23.2z
			 M167.7,23.2c0-5.5-3.5-8.8-10.4-8.8h-9.3v17.4h9.3C164.2,31.9,167.7,28.6,167.7,23.2z"/>
		<path class="st0" d="M190,30.9c0-17.8,14-30.9,33-30.9c19,0,33,13.1,33,30.9c0,17.8-14,30.9-33,30.9C204.1,61.8,190,48.8,190,30.9
			z M239.1,30.9c0-10.3-7.1-17-16.1-17c-9,0-16.1,6.7-16.1,17c0,10.3,7.1,17,16.1,17C232.1,47.9,239.1,41.2,239.1,30.9z"/>
		<path class="st0" d="M264.4,1.2h16.8v46.1h28.4v13.3h-45.2V1.2z"/>
		<path class="st0" d="M315.6,1.2h16.8v59.5h-16.8V1.2z"/>
		<path class="st0" d="M340.7,30.9c0-18.1,13.8-30.9,32.7-30.9c11,0,19.8,4,25.6,11.2l-10.7,9.7c-3.7-4.5-8.3-7-14-7
			c-9.8,0-16.6,6.8-16.6,17c0,10.2,6.8,17,16.6,17c5.7,0,10.3-2.5,14-7l10.7,9.7c-5.8,7.2-14.6,11.2-25.6,11.2
			C354.6,61.8,340.7,49,340.7,30.9z"/>
		<path class="st0" d="M437.5,39.3v21.3h-16.8V39.1L398,1.2h17.8l14.1,23.6l14.1-23.6h16.3L437.5,39.3z"/>
	</g>
	<g>
		<path class="st1" d="M178,107.5c0,9.3-7.1,14.7-20.9,14.7h-26V67.8h24.4c12.5,0,19.5,5.3,19.5,14.1c0,5.9-3,10-7.3,12.1
			C173.9,95.7,178,100.3,178,107.5z M138.9,74.1v17.4h16c7.9,0,12.5-3,12.5-8.7c0-5.8-4.5-8.7-12.5-8.7H138.9z M170.1,106.9
			c0-6.3-4.7-9.1-13.3-9.1h-17.9V116h17.9C165.4,116,170.1,113.2,170.1,106.9z"/>
		<path class="st1" d="M187.6,98.7v-31h7.8v30.7c0,12.1,5.5,17.5,15.3,17.5s15.4-5.5,15.4-17.5V67.8h7.6v31c0,15.8-8.6,24.1-23,24.1
			C196.3,122.9,187.6,114.5,187.6,98.7z"/>
		<path class="st1" d="M284.2,122.3l-11.8-16.7c-1.1,0.1-2.3,0.2-3.4,0.2h-13.5v16.6h-7.8V67.8H269c14.2,0,22.7,7.2,22.7,19
			c0,8.4-4.4,14.5-12,17.2l12.9,18.3H284.2z M283.9,86.8c0-7.8-5.2-12.2-15.2-12.2h-13.2v24.5h13.2
			C278.7,99.1,283.9,94.5,283.9,86.8z"/>
		<path class="st1" d="M342,115.5v6.8h-39.6V67.8h38.5v6.8h-30.7v16.7h27.3v6.6h-27.3v17.6H342z"/>
		<path class="st1" d="M387.4,108.6h-29l-6,13.6h-8l24.7-54.5h7.7l24.8,54.5h-8.2L387.4,108.6z M384.6,102.4l-11.8-26.7l-11.8,26.7
			H384.6z"/>
		<path class="st1" d="M406,98.7v-31h7.8v30.7c0,12.1,5.5,17.5,15.3,17.5c9.8,0,15.4-5.5,15.4-17.5V67.8h7.6v31
			c0,15.8-8.6,24.1-23,24.1C414.8,122.9,406,114.5,406,98.7z"/>
	</g>
	<g>
		<path class="st2" d="M60.5,55.6H50.3v12.8h9.3c9.6,0,14.5,4.4,14.5,11.8c0,7.5-4.9,11.9-14.5,11.9H46.8v-9.5H31.1v22.3h29.5
			c18.2,0,29.6-9.4,29.6-24.7C90.1,65.1,78.7,55.6,60.5,55.6z"/>
		<path class="st1" d="M46.8,68.5V55.6V32h12.8c9.6,0,14.5,4.4,14.5,11.9c0,4.3-3.2,8.6-3.9,9.7c5.6,1.1,10.4,3.2,14.1,6.2
			c3.7-4.1,5.8-9.5,5.8-15.9c0-15.3-11.4-24.7-29.6-24.7H31.1v60.1h15.8V68.5z"/>
	</g>
</g>
</svg>
