<svg xmlns="http://www.w3.org/2000/svg" xmlns:xlink="http://www.w3.org/1999/xlink" width="3000" zoomAndPan="magnify" viewBox="0 0 2250 809.999993" height="1080" preserveAspectRatio="xMidYMid meet" version="1.0"><defs><g/><clipPath id="68328955b7"><path d="M 128 185.757812 L 831 185.757812 L 831 218 L 128 218 Z M 128 185.757812 " clip-rule="nonzero"/></clipPath><clipPath id="052450c924"><path d="M 128 185.757812 L 450 185.757812 L 450 407 L 128 407 Z M 128 185.757812 " clip-rule="nonzero"/></clipPath></defs><rect x="-225" width="2700" fill="#ffffff" y="-80.999999" height="971.999992" fill-opacity="1"/><rect x="-225" width="2700" fill="#ffffff" y="-80.999999" height="971.999992" fill-opacity="1"/><rect x="-225" width="2700" fill="#1f4376" y="-80.999999" height="971.999992" fill-opacity="1"/><path fill="#cb001c" d="M 128.761719 563.355469 L 830.378906 563.355469 L 830.378906 594.796875 L 128.761719 594.796875 Z M 128.761719 563.355469 " fill-opacity="1" fill-rule="nonzero"/><path fill="#ffffff" d="M 128.761719 531.886719 L 830.378906 531.886719 L 830.378906 563.355469 L 128.761719 563.355469 Z M 128.761719 531.886719 " fill-opacity="1" fill-rule="nonzero"/><path fill="#cb001c" d="M 128.761719 500.433594 L 830.378906 500.433594 L 830.378906 531.886719 L 128.761719 531.886719 Z M 128.761719 500.433594 " fill-opacity="1" fill-rule="nonzero"/><path fill="#ffffff" d="M 128.761719 468.9375 L 830.378906 468.9375 L 830.378906 500.433594 L 128.761719 500.433594 Z M 128.761719 468.9375 " fill-opacity="1" fill-rule="nonzero"/><path fill="#cb001c" d="M 128.761719 437.5 L 830.378906 437.5 L 830.378906 468.9375 L 128.761719 468.9375 Z M 128.761719 437.5 " fill-opacity="1" fill-rule="nonzero"/><path fill="#ffffff" d="M 128.761719 406.042969 L 830.378906 406.042969 L 830.378906 437.5 L 128.761719 437.5 Z M 128.761719 406.042969 " fill-opacity="1" fill-rule="nonzero"/><path fill="#cb001c" d="M 128.761719 374.578125 L 830.378906 374.578125 L 830.378906 406.042969 L 128.761719 406.042969 Z M 128.761719 374.578125 " fill-opacity="1" fill-rule="nonzero"/><path fill="#ffffff" d="M 128.761719 343.09375 L 830.378906 343.09375 L 830.378906 374.550781 L 128.761719 374.550781 Z M 128.761719 343.09375 " fill-opacity="1" fill-rule="nonzero"/><path fill="#cb001c" d="M 128.761719 311.628906 L 830.378906 311.628906 L 830.378906 343.09375 L 128.761719 343.09375 Z M 128.761719 311.628906 " fill-opacity="1" fill-rule="nonzero"/><path fill="#ffffff" d="M 128.761719 280.148438 L 830.378906 280.148438 L 830.378906 311.613281 L 128.761719 311.613281 Z M 128.761719 280.148438 " fill-opacity="1" fill-rule="nonzero"/><path fill="#cb001c" d="M 128.761719 248.707031 L 830.378906 248.707031 L 830.378906 280.148438 L 128.761719 280.148438 Z M 128.761719 248.707031 " fill-opacity="1" fill-rule="nonzero"/><path fill="#ffffff" d="M 128.761719 217.226562 L 830.378906 217.226562 L 830.378906 248.691406 L 128.761719 248.691406 Z M 128.761719 217.226562 " fill-opacity="1" fill-rule="nonzero"/><g clip-path="url(#68328955b7)"><path fill="#cb001c" d="M 128.761719 185.757812 L 830.378906 185.757812 L 830.378906 217.226562 L 128.761719 217.226562 Z M 128.761719 185.757812 " fill-opacity="1" fill-rule="nonzero"/></g><g clip-path="url(#052450c924)"><path fill="#2a3560" d="M 128.761719 185.757812 L 449.085938 185.757812 L 449.085938 406.042969 L 128.761719 406.042969 Z M 128.761719 185.757812 " fill-opacity="1" fill-rule="nonzero"/></g><path fill="#ffffff" d="M 157.660156 210.023438 L 160.359375 218.367188 L 169.105469 218.367188 L 162.035156 223.496094 L 164.730469 231.839844 L 157.660156 226.664062 L 150.5625 231.839844 L 153.273438 223.496094 L 146.1875 218.367188 L 154.933594 218.367188 Z M 157.660156 210.023438 " fill-opacity="1" fill-rule="nonzero"/><path fill="#ffffff" d="M 157.660156 246.800781 L 160.359375 255.125 L 169.105469 255.125 L 162.035156 260.277344 L 164.730469 268.601562 L 157.660156 263.445312 L 150.5625 268.601562 L 153.273438 260.277344 L 146.1875 255.125 L 154.933594 255.125 Z M 157.660156 246.800781 " fill-opacity="1" fill-rule="nonzero"/><path fill="#ffffff" d="M 157.660156 283.570312 L 160.359375 291.878906 L 169.105469 291.878906 L 162.035156 297.03125 L 164.730469 305.355469 L 157.660156 300.203125 L 150.5625 305.355469 L 153.273438 297.03125 L 146.1875 291.878906 L 154.933594 291.878906 Z M 157.660156 283.570312 " fill-opacity="1" fill-rule="nonzero"/><path fill="#ffffff" d="M 157.660156 320.34375 L 160.359375 328.667969 L 169.105469 328.667969 L 162.035156 333.816406 L 164.730469 342.113281 L 157.660156 336.988281 L 150.5625 342.113281 L 153.273438 333.816406 L 146.1875 328.667969 L 154.933594 328.667969 Z M 157.660156 320.34375 " fill-opacity="1" fill-rule="nonzero"/><path fill="#ffffff" d="M 157.660156 357.105469 L 160.359375 365.421875 L 169.105469 365.421875 L 162.035156 370.578125 L 164.730469 378.894531 L 157.660156 373.765625 L 150.5625 378.894531 L 153.273438 370.578125 L 146.1875 365.421875 L 154.933594 365.421875 Z M 157.660156 357.105469 " fill-opacity="1" fill-rule="nonzero"/><path fill="#ffffff" d="M 183.289062 229.410156 L 185.972656 237.726562 L 194.71875 237.726562 L 187.648438 242.882812 L 190.347656 251.203125 L 183.289062 246.050781 L 176.191406 251.203125 L 178.902344 242.882812 L 171.816406 237.726562 L 180.578125 237.726562 Z M 183.289062 229.410156 " fill-opacity="1" fill-rule="nonzero"/><path fill="#ffffff" d="M 183.289062 266.164062 L 185.972656 274.488281 L 194.71875 274.488281 L 187.648438 279.636719 L 190.347656 287.957031 L 183.289062 282.824219 L 176.191406 287.957031 L 178.902344 279.636719 L 171.816406 274.488281 L 180.578125 274.488281 Z M 183.289062 266.164062 " fill-opacity="1" fill-rule="nonzero"/><path fill="#ffffff" d="M 183.289062 302.945312 L 185.972656 311.269531 L 194.71875 311.269531 L 187.648438 316.417969 L 190.347656 324.714844 L 183.289062 319.585938 L 176.191406 324.714844 L 178.902344 316.417969 L 171.816406 311.269531 L 180.578125 311.269531 Z M 183.289062 302.945312 " fill-opacity="1" fill-rule="nonzero"/><path fill="#ffffff" d="M 183.289062 339.707031 L 185.972656 348.023438 L 194.71875 348.023438 L 187.648438 353.171875 L 190.347656 361.496094 L 183.289062 356.339844 L 176.191406 361.496094 L 178.902344 353.171875 L 171.816406 348.023438 L 180.578125 348.023438 Z M 183.289062 339.707031 " fill-opacity="1" fill-rule="nonzero"/><path fill="#ffffff" d="M 209.234375 210.023438 L 211.933594 218.367188 L 220.707031 218.367188 L 213.609375 223.496094 L 216.308594 231.839844 L 209.234375 226.664062 L 202.136719 231.839844 L 204.835938 223.496094 L 197.738281 218.367188 L 206.523438 218.367188 Z M 209.234375 210.023438 " fill-opacity="1" fill-rule="nonzero"/><path fill="#ffffff" d="M 209.234375 246.800781 L 211.933594 255.125 L 220.707031 255.125 L 213.609375 260.277344 L 216.308594 268.601562 L 209.234375 263.445312 L 202.136719 268.601562 L 204.835938 260.277344 L 197.738281 255.125 L 206.523438 255.125 Z M 209.234375 246.800781 " fill-opacity="1" fill-rule="nonzero"/><path fill="#ffffff" d="M 209.234375 283.570312 L 211.933594 291.878906 L 220.707031 291.878906 L 213.609375 297.03125 L 216.308594 305.355469 L 209.234375 300.203125 L 202.136719 305.355469 L 204.835938 297.03125 L 197.738281 291.878906 L 206.523438 291.878906 Z M 209.234375 283.570312 " fill-opacity="1" fill-rule="nonzero"/><path fill="#ffffff" d="M 209.234375 320.34375 L 211.933594 328.667969 L 220.707031 328.667969 L 213.609375 333.816406 L 216.308594 342.113281 L 209.234375 336.988281 L 202.136719 342.113281 L 204.835938 333.816406 L 197.738281 328.667969 L 206.523438 328.667969 Z M 209.234375 320.34375 " fill-opacity="1" fill-rule="nonzero"/><path fill="#ffffff" d="M 209.234375 357.105469 L 211.933594 365.421875 L 220.707031 365.421875 L 213.609375 370.578125 L 216.308594 378.894531 L 209.234375 373.765625 L 202.136719 378.894531 L 204.835938 370.578125 L 197.738281 365.421875 L 206.523438 365.421875 Z M 209.234375 357.105469 " fill-opacity="1" fill-rule="nonzero"/><path fill="#ffffff" d="M 234.835938 229.410156 L 237.5625 237.726562 L 246.308594 237.726562 L 239.222656 242.882812 L 241.9375 251.203125 L 234.835938 246.050781 L 227.726562 251.203125 L 230.464844 242.882812 L 223.394531 237.726562 L 232.125 237.726562 Z M 234.835938 229.410156 " fill-opacity="1" fill-rule="nonzero"/><path fill="#ffffff" d="M 234.835938 266.164062 L 237.5625 274.488281 L 246.308594 274.488281 L 239.222656 279.636719 L 241.9375 287.957031 L 234.835938 282.824219 L 227.726562 287.957031 L 230.464844 279.636719 L 223.394531 274.488281 L 232.125 274.488281 Z M 234.835938 266.164062 " fill-opacity="1" fill-rule="nonzero"/><path fill="#ffffff" d="M 234.835938 302.945312 L 237.5625 311.269531 L 246.308594 311.269531 L 239.222656 316.417969 L 241.9375 324.714844 L 234.835938 319.585938 L 227.726562 324.714844 L 230.464844 316.417969 L 223.394531 311.269531 L 232.125 311.269531 Z M 234.835938 302.945312 " fill-opacity="1" fill-rule="nonzero"/><path fill="#ffffff" d="M 234.835938 339.707031 L 237.5625 348.023438 L 246.308594 348.023438 L 239.222656 353.171875 L 241.9375 361.496094 L 234.835938 356.339844 L 227.726562 361.496094 L 230.464844 353.171875 L 223.394531 348.023438 L 232.125 348.023438 Z M 234.835938 339.707031 " fill-opacity="1" fill-rule="nonzero"/><path fill="#ffffff" d="M 260.785156 210.023438 L 263.507812 218.367188 L 272.257812 218.367188 L 265.171875 223.496094 L 267.855469 231.839844 L 260.785156 226.664062 L 253.710938 231.839844 L 256.4375 223.496094 L 249.339844 218.367188 L 258.085938 218.367188 Z M 260.785156 210.023438 " fill-opacity="1" fill-rule="nonzero"/><path fill="#ffffff" d="M 260.785156 246.800781 L 263.507812 255.125 L 272.257812 255.125 L 265.171875 260.277344 L 267.855469 268.601562 L 260.785156 263.445312 L 253.710938 268.601562 L 256.4375 260.277344 L 249.339844 255.125 L 258.085938 255.125 Z M 260.785156 246.800781 " fill-opacity="1" fill-rule="nonzero"/><path fill="#ffffff" d="M 260.785156 283.570312 L 263.507812 291.878906 L 272.257812 291.878906 L 265.171875 297.03125 L 267.855469 305.355469 L 260.785156 300.203125 L 253.710938 305.355469 L 256.4375 297.03125 L 249.339844 291.878906 L 258.085938 291.878906 Z M 260.785156 283.570312 " fill-opacity="1" fill-rule="nonzero"/><path fill="#ffffff" d="M 260.785156 320.34375 L 263.507812 328.667969 L 272.257812 328.667969 L 265.171875 333.816406 L 267.855469 342.113281 L 260.785156 336.988281 L 253.710938 342.113281 L 256.4375 333.816406 L 249.339844 328.667969 L 258.085938 328.667969 Z M 260.785156 320.34375 " fill-opacity="1" fill-rule="nonzero"/><path fill="#ffffff" d="M 260.785156 357.105469 L 263.507812 365.421875 L 272.257812 365.421875 L 265.171875 370.578125 L 267.855469 378.894531 L 260.785156 373.765625 L 253.710938 378.894531 L 256.4375 370.578125 L 249.339844 365.421875 L 258.085938 365.421875 Z M 260.785156 357.105469 " fill-opacity="1" fill-rule="nonzero"/><path fill="#ffffff" d="M 286.398438 229.410156 L 289.125 237.726562 L 297.871094 237.726562 L 290.800781 242.882812 L 293.5 251.203125 L 286.398438 246.050781 L 279.328125 251.203125 L 282 242.882812 L 274.957031 237.726562 L 283.699219 237.726562 Z M 286.398438 229.410156 " fill-opacity="1" fill-rule="nonzero"/><path fill="#ffffff" d="M 286.398438 266.164062 L 289.125 274.488281 L 297.871094 274.488281 L 290.800781 279.636719 L 293.5 287.957031 L 286.398438 282.824219 L 279.328125 287.957031 L 282 279.636719 L 274.957031 274.488281 L 283.699219 274.488281 Z M 286.398438 266.164062 " fill-opacity="1" fill-rule="nonzero"/><path fill="#ffffff" d="M 286.398438 302.945312 L 289.125 311.269531 L 297.871094 311.269531 L 290.800781 316.417969 L 293.5 324.714844 L 286.398438 319.585938 L 279.328125 324.714844 L 282 316.417969 L 274.957031 311.269531 L 283.699219 311.269531 Z M 286.398438 302.945312 " fill-opacity="1" fill-rule="nonzero"/><path fill="#ffffff" d="M 286.398438 339.707031 L 289.125 348.023438 L 297.871094 348.023438 L 290.800781 353.171875 L 293.5 361.496094 L 286.398438 356.339844 L 279.328125 361.496094 L 282 353.171875 L 274.957031 348.023438 L 283.699219 348.023438 Z M 286.398438 339.707031 " fill-opacity="1" fill-rule="nonzero"/><path fill="#ffffff" d="M 312.359375 210.023438 L 315.058594 218.367188 L 323.832031 218.367188 L 316.734375 223.496094 L 319.457031 231.839844 L 312.359375 226.664062 L 305.273438 231.839844 L 307.988281 223.496094 L 300.886719 218.367188 L 309.648438 218.367188 Z M 312.359375 210.023438 " fill-opacity="1" fill-rule="nonzero"/><path fill="#ffffff" d="M 312.359375 246.800781 L 315.058594 255.125 L 323.832031 255.125 L 316.734375 260.277344 L 319.457031 268.601562 L 312.359375 263.445312 L 305.273438 268.601562 L 307.988281 260.277344 L 300.886719 255.125 L 309.648438 255.125 Z M 312.359375 246.800781 " fill-opacity="1" fill-rule="nonzero"/><path fill="#ffffff" d="M 312.359375 283.570312 L 315.058594 291.878906 L 323.832031 291.878906 L 316.734375 297.03125 L 319.457031 305.355469 L 312.359375 300.203125 L 305.273438 305.355469 L 307.988281 297.03125 L 300.886719 291.878906 L 309.648438 291.878906 Z M 312.359375 283.570312 " fill-opacity="1" fill-rule="nonzero"/><path fill="#ffffff" d="M 312.359375 320.34375 L 315.058594 328.667969 L 323.832031 328.667969 L 316.734375 333.816406 L 319.457031 342.113281 L 312.359375 336.988281 L 305.273438 342.113281 L 307.988281 333.816406 L 300.886719 328.667969 L 309.648438 328.667969 Z M 312.359375 320.34375 " fill-opacity="1" fill-rule="nonzero"/><path fill="#ffffff" d="M 312.359375 357.105469 L 315.058594 365.421875 L 323.832031 365.421875 L 316.734375 370.578125 L 319.457031 378.894531 L 312.359375 373.765625 L 305.273438 378.894531 L 307.988281 370.578125 L 300.886719 365.421875 L 309.648438 365.421875 Z M 312.359375 357.105469 " fill-opacity="1" fill-rule="nonzero"/><path fill="#ffffff" d="M 338.003906 229.410156 L 340.699219 237.726562 L 349.433594 237.726562 L 342.347656 242.882812 L 345.074219 251.203125 L 338.003906 246.050781 L 330.878906 251.203125 L 333.601562 242.882812 L 326.53125 237.726562 L 335.277344 237.726562 Z M 338.003906 229.410156 " fill-opacity="1" fill-rule="nonzero"/><path fill="#ffffff" d="M 338.003906 266.164062 L 340.699219 274.488281 L 349.433594 274.488281 L 342.347656 279.636719 L 345.074219 287.957031 L 338.003906 282.824219 L 330.878906 287.957031 L 333.601562 279.636719 L 326.53125 274.488281 L 335.277344 274.488281 Z M 338.003906 266.164062 " fill-opacity="1" fill-rule="nonzero"/><path fill="#ffffff" d="M 338.003906 302.945312 L 340.699219 311.269531 L 349.433594 311.269531 L 342.347656 316.417969 L 345.074219 324.714844 L 338.003906 319.585938 L 330.878906 324.714844 L 333.601562 316.417969 L 326.53125 311.269531 L 335.277344 311.269531 Z M 338.003906 302.945312 " fill-opacity="1" fill-rule="nonzero"/><path fill="#ffffff" d="M 338.003906 339.707031 L 340.699219 348.023438 L 349.433594 348.023438 L 342.347656 353.171875 L 345.074219 361.496094 L 338.003906 356.339844 L 330.878906 361.496094 L 333.601562 353.171875 L 326.53125 348.023438 L 335.277344 348.023438 Z M 338.003906 339.707031 " fill-opacity="1" fill-rule="nonzero"/><path fill="#ffffff" d="M 363.9375 210.023438 L 366.632812 218.367188 L 375.382812 218.367188 L 368.335938 223.496094 L 371.019531 231.839844 L 363.9375 226.664062 L 356.863281 231.839844 L 359.5625 223.496094 L 352.464844 218.367188 L 361.210938 218.367188 Z M 363.9375 210.023438 " fill-opacity="1" fill-rule="nonzero"/><path fill="#ffffff" d="M 363.9375 246.800781 L 366.632812 255.125 L 375.382812 255.125 L 368.335938 260.277344 L 371.019531 268.601562 L 363.9375 263.445312 L 356.863281 268.601562 L 359.5625 260.277344 L 352.464844 255.125 L 361.210938 255.125 Z M 363.9375 246.800781 " fill-opacity="1" fill-rule="nonzero"/><path fill="#ffffff" d="M 363.9375 283.570312 L 366.632812 291.878906 L 375.382812 291.878906 L 368.335938 297.03125 L 371.019531 305.355469 L 363.9375 300.203125 L 356.863281 305.355469 L 359.5625 297.03125 L 352.464844 291.878906 L 361.210938 291.878906 Z M 363.9375 283.570312 " fill-opacity="1" fill-rule="nonzero"/><path fill="#ffffff" d="M 363.9375 320.34375 L 366.632812 328.667969 L 375.382812 328.667969 L 368.335938 333.816406 L 371.019531 342.113281 L 363.9375 336.988281 L 356.863281 342.113281 L 359.5625 333.816406 L 352.464844 328.667969 L 361.210938 328.667969 Z M 363.9375 320.34375 " fill-opacity="1" fill-rule="nonzero"/><path fill="#ffffff" d="M 363.9375 357.105469 L 366.632812 365.421875 L 375.382812 365.421875 L 368.335938 370.578125 L 371.019531 378.894531 L 363.9375 373.765625 L 356.863281 378.894531 L 359.5625 370.578125 L 352.464844 365.421875 L 361.210938 365.421875 Z M 363.9375 357.105469 " fill-opacity="1" fill-rule="nonzero"/><path fill="#ffffff" d="M 389.566406 229.410156 L 392.25 237.726562 L 401.023438 237.726562 L 393.9375 242.882812 L 396.621094 251.203125 L 389.566406 246.050781 L 382.453125 251.203125 L 385.152344 242.882812 L 378.105469 237.726562 L 386.851562 237.726562 Z M 389.566406 229.410156 " fill-opacity="1" fill-rule="nonzero"/><path fill="#ffffff" d="M 389.566406 266.164062 L 392.25 274.488281 L 401.023438 274.488281 L 393.9375 279.636719 L 396.621094 287.957031 L 389.566406 282.824219 L 382.453125 287.957031 L 385.152344 279.636719 L 378.105469 274.488281 L 386.851562 274.488281 Z M 389.566406 266.164062 " fill-opacity="1" fill-rule="nonzero"/><path fill="#ffffff" d="M 389.566406 302.945312 L 392.25 311.269531 L 401.023438 311.269531 L 393.9375 316.417969 L 396.621094 324.714844 L 389.566406 319.585938 L 382.453125 324.714844 L 385.152344 316.417969 L 378.105469 311.269531 L 386.851562 311.269531 Z M 389.566406 302.945312 " fill-opacity="1" fill-rule="nonzero"/><path fill="#ffffff" d="M 389.566406 339.707031 L 392.25 348.023438 L 401.023438 348.023438 L 393.9375 353.171875 L 396.621094 361.496094 L 389.566406 356.339844 L 382.453125 361.496094 L 385.152344 353.171875 L 378.105469 348.023438 L 386.851562 348.023438 Z M 389.566406 339.707031 " fill-opacity="1" fill-rule="nonzero"/><path fill="#ffffff" d="M 415.5 210.023438 L 418.210938 218.367188 L 426.957031 218.367188 L 419.871094 223.496094 L 422.582031 231.839844 L 415.5 226.664062 L 408.402344 231.839844 L 411.125 223.496094 L 404.027344 218.367188 L 412.800781 218.367188 Z M 415.5 210.023438 " fill-opacity="1" fill-rule="nonzero"/><path fill="#ffffff" d="M 415.5 246.800781 L 418.210938 255.125 L 426.957031 255.125 L 419.871094 260.277344 L 422.582031 268.601562 L 415.5 263.445312 L 408.402344 268.601562 L 411.125 260.277344 L 404.027344 255.125 L 412.800781 255.125 Z M 415.5 246.800781 " fill-opacity="1" fill-rule="nonzero"/><path fill="#ffffff" d="M 415.5 283.570312 L 418.210938 291.878906 L 426.957031 291.878906 L 419.871094 297.03125 L 422.582031 305.355469 L 415.5 300.203125 L 408.402344 305.355469 L 411.125 297.03125 L 404.027344 291.878906 L 412.800781 291.878906 Z M 415.5 283.570312 " fill-opacity="1" fill-rule="nonzero"/><path fill="#ffffff" d="M 415.5 320.34375 L 418.210938 328.667969 L 426.957031 328.667969 L 419.871094 333.816406 L 422.582031 342.113281 L 415.5 336.988281 L 408.402344 342.113281 L 411.125 333.816406 L 404.027344 328.667969 L 412.800781 328.667969 Z M 415.5 320.34375 " fill-opacity="1" fill-rule="nonzero"/><path fill="#ffffff" d="M 415.5 357.105469 L 418.210938 365.421875 L 426.957031 365.421875 L 419.871094 370.578125 L 422.582031 378.894531 L 415.5 373.765625 L 408.402344 378.894531 L 411.125 370.578125 L 404.027344 365.421875 L 412.800781 365.421875 Z M 415.5 357.105469 " fill-opacity="1" fill-rule="nonzero"/><g fill="#ffffff" fill-opacity="1"><g transform="translate(1013.2768, 310.875004)"><g><path d="M 47.703125 -83.0625 C 59.804688 -83.0625 69.375 -80.035156 76.40625 -73.984375 C 83.445312 -67.929688 86.96875 -59.289062 86.96875 -48.0625 L 61.9375 -48.0625 C 61.9375 -52.800781 60.691406 -56.554688 58.203125 -59.328125 C 55.710938 -62.097656 52.171875 -63.484375 47.578125 -63.484375 C 42.273438 -63.484375 38.378906 -61.820312 35.890625 -58.5 C 33.398438 -55.175781 32.15625 -50.546875 32.15625 -44.609375 L 32.15625 -37.015625 C 32.15625 -31.160156 33.398438 -26.550781 35.890625 -23.1875 C 38.378906 -19.832031 42.195312 -18.15625 47.34375 -18.15625 C 52.40625 -18.15625 56.238281 -19.457031 58.84375 -22.0625 C 61.457031 -24.675781 62.765625 -28.359375 62.765625 -33.109375 L 86.96875 -33.109375 C 86.96875 -21.953125 83.546875 -13.40625 76.703125 -7.46875 C 69.867188 -1.539062 60.203125 1.421875 47.703125 1.421875 C 33.773438 1.421875 23.234375 -2.132812 16.078125 -9.25 C 8.921875 -16.375 5.34375 -26.894531 5.34375 -40.8125 C 5.34375 -54.738281 8.921875 -65.257812 16.078125 -72.375 C 23.234375 -79.5 33.773438 -83.0625 47.703125 -83.0625 Z M 47.703125 -83.0625 "/></g></g></g><g fill="#ffffff" fill-opacity="1"><g transform="translate(1105.579141, 310.875004)"><g><path d="M 49.359375 -83.0625 C 63.441406 -83.0625 74.316406 -79.460938 81.984375 -72.265625 C 89.660156 -65.066406 93.5 -54.582031 93.5 -40.8125 C 93.5 -27.050781 89.660156 -16.570312 81.984375 -9.375 C 74.316406 -2.175781 63.441406 1.421875 49.359375 1.421875 C 35.273438 1.421875 24.414062 -2.15625 16.78125 -9.3125 C 9.15625 -16.46875 5.34375 -26.96875 5.34375 -40.8125 C 5.34375 -54.65625 9.15625 -65.15625 16.78125 -72.3125 C 24.414062 -79.476562 35.273438 -83.0625 49.359375 -83.0625 Z M 49.359375 -63.484375 C 43.742188 -63.484375 39.472656 -61.78125 36.546875 -58.375 C 33.617188 -54.976562 32.15625 -50.390625 32.15625 -44.609375 L 32.15625 -37.015625 C 32.15625 -31.242188 33.617188 -26.65625 36.546875 -23.25 C 39.472656 -19.851562 43.742188 -18.15625 49.359375 -18.15625 C 54.972656 -18.15625 59.265625 -19.851562 62.234375 -23.25 C 65.203125 -26.65625 66.6875 -31.242188 66.6875 -37.015625 L 66.6875 -44.609375 C 66.6875 -50.390625 65.203125 -54.976562 62.234375 -58.375 C 59.265625 -61.78125 54.972656 -63.484375 49.359375 -63.484375 Z M 49.359375 -63.484375 "/></g></g></g><g fill="#ffffff" fill-opacity="1"><g transform="translate(1204.406708, 310.875004)"><g><path d="M 67.15625 0 L 32.875 -39.625 L 32.875 0 L 8.78125 0 L 8.78125 -81.640625 L 31.6875 -81.640625 L 65.96875 -41.40625 L 65.96875 -81.640625 L 90.0625 -81.640625 L 90.0625 0 Z M 67.15625 0 "/></g></g></g><g fill="#ffffff" fill-opacity="1"><g transform="translate(1303.234275, 310.875004)"><g><path d="M 47.703125 -83.0625 C 59.804688 -83.0625 69.375 -80.035156 76.40625 -73.984375 C 83.445312 -67.929688 86.96875 -59.289062 86.96875 -48.0625 L 61.9375 -48.0625 C 61.9375 -52.800781 60.691406 -56.554688 58.203125 -59.328125 C 55.710938 -62.097656 52.171875 -63.484375 47.578125 -63.484375 C 42.273438 -63.484375 38.378906 -61.820312 35.890625 -58.5 C 33.398438 -55.175781 32.15625 -50.546875 32.15625 -44.609375 L 32.15625 -37.015625 C 32.15625 -31.160156 33.398438 -26.550781 35.890625 -23.1875 C 38.378906 -19.832031 42.195312 -18.15625 47.34375 -18.15625 C 52.40625 -18.15625 56.238281 -19.457031 58.84375 -22.0625 C 61.457031 -24.675781 62.765625 -28.359375 62.765625 -33.109375 L 86.96875 -33.109375 C 86.96875 -21.953125 83.546875 -13.40625 76.703125 -7.46875 C 69.867188 -1.539062 60.203125 1.421875 47.703125 1.421875 C 33.773438 1.421875 23.234375 -2.132812 16.078125 -9.25 C 8.921875 -16.375 5.34375 -26.894531 5.34375 -40.8125 C 5.34375 -54.738281 8.921875 -65.257812 16.078125 -72.375 C 23.234375 -79.5 33.773438 -83.0625 47.703125 -83.0625 Z M 47.703125 -83.0625 "/></g></g></g><g fill="#ffffff" fill-opacity="1"><g transform="translate(1395.536616, 310.875004)"><g><path d="M 8.78125 -81.640625 L 79.375 -81.640625 L 79.375 -62.0625 L 35 -62.0625 L 35 -50.78125 L 72.96875 -50.78125 L 72.96875 -32.03125 L 35 -32.03125 L 35 -19.578125 L 80.21875 -19.578125 L 80.21875 0 L 8.78125 0 Z M 8.78125 -81.640625 "/></g></g></g><g fill="#ffffff" fill-opacity="1"><g transform="translate(1481.195066, 310.875004)"><g><path d="M 63.484375 0 L 60.046875 -11.515625 L 31.4375 -11.515625 L 28 0 L 1.1875 0 L 30.96875 -81.640625 L 61.46875 -81.640625 L 91.25 0 Z M 36.90625 -29.78125 L 54.578125 -29.78125 L 46.03125 -58.859375 L 45.5625 -58.859375 Z M 36.90625 -29.78125 "/></g></g></g><g fill="#ffffff" fill-opacity="1"><g transform="translate(1573.497384, 310.875004)"><g><path d="M 8.78125 -81.640625 L 35 -81.640625 L 35 -20.890625 L 76.890625 -20.890625 L 76.890625 0 L 8.78125 0 Z M 8.78125 -81.640625 "/></g></g></g><g fill="#ffffff" fill-opacity="1"><g transform="translate(1652.630619, 310.875004)"><g><path d="M 8.78125 -81.640625 L 79.375 -81.640625 L 79.375 -62.0625 L 35 -62.0625 L 35 -50.78125 L 72.96875 -50.78125 L 72.96875 -32.03125 L 35 -32.03125 L 35 -19.578125 L 80.21875 -19.578125 L 80.21875 0 L 8.78125 0 Z M 8.78125 -81.640625 "/></g></g></g><g fill="#ffffff" fill-opacity="1"><g transform="translate(1738.289093, 310.875004)"><g><path d="M 44.140625 -81.640625 C 72.691406 -81.640625 86.96875 -68.03125 86.96875 -40.8125 C 86.96875 -13.601562 72.691406 0 44.140625 0 L 8.78125 0 L 8.78125 -81.640625 Z M 35 -19.578125 L 43.671875 -19.578125 C 54.660156 -19.578125 60.15625 -25.472656 60.15625 -37.265625 L 60.15625 -44.375 C 60.15625 -56.164062 54.660156 -62.0625 43.671875 -62.0625 L 35 -62.0625 Z M 35 -19.578125 "/></g></g></g><g fill="#ffffff" fill-opacity="1"><g transform="translate(1830.589259, 310.875004)"><g/></g></g><g fill="#ffffff" fill-opacity="1"><g transform="translate(917.722117, 443.624998)"><g><path d="M 47.703125 -83.0625 C 59.804688 -83.0625 69.375 -80.035156 76.40625 -73.984375 C 83.445312 -67.929688 86.96875 -59.289062 86.96875 -48.0625 L 61.9375 -48.0625 C 61.9375 -52.800781 60.691406 -56.554688 58.203125 -59.328125 C 55.710938 -62.097656 52.171875 -63.484375 47.578125 -63.484375 C 42.273438 -63.484375 38.378906 -61.820312 35.890625 -58.5 C 33.398438 -55.175781 32.15625 -50.546875 32.15625 -44.609375 L 32.15625 -37.015625 C 32.15625 -31.160156 33.398438 -26.550781 35.890625 -23.1875 C 38.378906 -19.832031 42.195312 -18.15625 47.34375 -18.15625 C 52.40625 -18.15625 56.238281 -19.457031 58.84375 -22.0625 C 61.457031 -24.675781 62.765625 -28.359375 62.765625 -33.109375 L 86.96875 -33.109375 C 86.96875 -21.953125 83.546875 -13.40625 76.703125 -7.46875 C 69.867188 -1.539062 60.203125 1.421875 47.703125 1.421875 C 33.773438 1.421875 23.234375 -2.132812 16.078125 -9.25 C 8.921875 -16.375 5.34375 -26.894531 5.34375 -40.8125 C 5.34375 -54.738281 8.921875 -65.257812 16.078125 -72.375 C 23.234375 -79.5 33.773438 -83.0625 47.703125 -83.0625 Z M 47.703125 -83.0625 "/></g></g></g><g fill="#ffffff" fill-opacity="1"><g transform="translate(1010.024458, 443.624998)"><g><path d="M 63.484375 0 L 60.046875 -11.515625 L 31.4375 -11.515625 L 28 0 L 1.1875 0 L 30.96875 -81.640625 L 61.46875 -81.640625 L 91.25 0 Z M 36.90625 -29.78125 L 54.578125 -29.78125 L 46.03125 -58.859375 L 45.5625 -58.859375 Z M 36.90625 -29.78125 "/></g></g></g><g fill="#ffffff" fill-opacity="1"><g transform="translate(1102.326799, 443.624998)"><g><path d="M 86.265625 -56.59375 C 86.265625 -51.613281 84.914062 -47.101562 82.21875 -43.0625 C 79.53125 -39.03125 75.617188 -36.066406 70.484375 -34.171875 L 88.640625 0 L 59.203125 0 L 44.734375 -29.78125 L 35 -29.78125 L 35 0 L 8.78125 0 L 8.78125 -81.640625 L 58.734375 -81.640625 C 64.585938 -81.640625 69.585938 -80.507812 73.734375 -78.25 C 77.890625 -76 81.015625 -72.953125 83.109375 -69.109375 C 85.210938 -65.273438 86.265625 -61.101562 86.265625 -56.59375 Z M 59.5625 -55.53125 C 59.5625 -57.664062 58.847656 -59.441406 57.421875 -60.859375 C 56.003906 -62.285156 54.265625 -63 52.203125 -63 L 35 -63 L 35 -47.9375 L 52.203125 -47.9375 C 54.265625 -47.9375 56.003906 -48.664062 57.421875 -50.125 C 58.847656 -51.59375 59.5625 -53.394531 59.5625 -55.53125 Z M 59.5625 -55.53125 "/></g></g></g><g fill="#ffffff" fill-opacity="1"><g transform="translate(1194.62914, 443.624998)"><g><path d="M 86.265625 -56.59375 C 86.265625 -51.613281 84.914062 -47.101562 82.21875 -43.0625 C 79.53125 -39.03125 75.617188 -36.066406 70.484375 -34.171875 L 88.640625 0 L 59.203125 0 L 44.734375 -29.78125 L 35 -29.78125 L 35 0 L 8.78125 0 L 8.78125 -81.640625 L 58.734375 -81.640625 C 64.585938 -81.640625 69.585938 -80.507812 73.734375 -78.25 C 77.890625 -76 81.015625 -72.953125 83.109375 -69.109375 C 85.210938 -65.273438 86.265625 -61.101562 86.265625 -56.59375 Z M 59.5625 -55.53125 C 59.5625 -57.664062 58.847656 -59.441406 57.421875 -60.859375 C 56.003906 -62.285156 54.265625 -63 52.203125 -63 L 35 -63 L 35 -47.9375 L 52.203125 -47.9375 C 54.265625 -47.9375 56.003906 -48.664062 57.421875 -50.125 C 58.847656 -51.59375 59.5625 -53.394531 59.5625 -55.53125 Z M 59.5625 -55.53125 "/></g></g></g><g fill="#ffffff" fill-opacity="1"><g transform="translate(1286.93148, 443.624998)"><g><path d="M 59.453125 0 L 33.21875 0 L 33.21875 -31.6875 L 0.828125 -81.640625 L 30.96875 -81.640625 L 46.625 -54.46875 L 47.109375 -54.46875 L 62.765625 -81.640625 L 91.359375 -81.640625 L 59.453125 -31.6875 Z M 59.453125 0 "/></g></g></g><g fill="#ffffff" fill-opacity="1"><g transform="translate(1379.233844, 443.624998)"><g/></g></g><g fill="#ffffff" fill-opacity="1"><g transform="translate(1418.741136, 443.624998)"><g><path d="M 54.578125 -81.640625 C 59.640625 -81.640625 64.148438 -80.472656 68.109375 -78.140625 C 72.066406 -75.804688 75.148438 -72.597656 77.359375 -68.515625 C 79.578125 -64.441406 80.6875 -59.875 80.6875 -54.8125 L 80.6875 -53.28125 C 80.6875 -48.21875 79.578125 -43.628906 77.359375 -39.515625 C 75.148438 -35.398438 72.066406 -32.175781 68.109375 -29.84375 C 64.148438 -27.507812 59.640625 -26.34375 54.578125 -26.34375 L 35 -26.34375 L 35 0 L 8.78125 0 L 8.78125 -81.640625 Z M 35 -45.4375 L 45.796875 -45.4375 C 48.566406 -45.4375 50.644531 -46.148438 52.03125 -47.578125 C 53.414062 -49.003906 54.109375 -50.941406 54.109375 -53.390625 L 54.109375 -54.34375 C 54.109375 -56.875 53.414062 -58.832031 52.03125 -60.21875 C 50.644531 -61.601562 48.566406 -62.296875 45.796875 -62.296875 L 35 -62.296875 Z M 35 -45.4375 "/></g></g></g><g fill="#ffffff" fill-opacity="1"><g transform="translate(1504.39961, 443.624998)"><g><path d="M 8.78125 -81.640625 L 79.375 -81.640625 L 79.375 -62.0625 L 35 -62.0625 L 35 -50.78125 L 72.96875 -50.78125 L 72.96875 -32.03125 L 35 -32.03125 L 35 -19.578125 L 80.21875 -19.578125 L 80.21875 0 L 8.78125 0 Z M 8.78125 -81.640625 "/></g></g></g><g fill="#ffffff" fill-opacity="1"><g transform="translate(1590.058083, 443.624998)"><g><path d="M 86.265625 -56.59375 C 86.265625 -51.613281 84.914062 -47.101562 82.21875 -43.0625 C 79.53125 -39.03125 75.617188 -36.066406 70.484375 -34.171875 L 88.640625 0 L 59.203125 0 L 44.734375 -29.78125 L 35 -29.78125 L 35 0 L 8.78125 0 L 8.78125 -81.640625 L 58.734375 -81.640625 C 64.585938 -81.640625 69.585938 -80.507812 73.734375 -78.25 C 77.890625 -76 81.015625 -72.953125 83.109375 -69.109375 C 85.210938 -65.273438 86.265625 -61.101562 86.265625 -56.59375 Z M 59.5625 -55.53125 C 59.5625 -57.664062 58.847656 -59.441406 57.421875 -60.859375 C 56.003906 -62.285156 54.265625 -63 52.203125 -63 L 35 -63 L 35 -47.9375 L 52.203125 -47.9375 C 54.265625 -47.9375 56.003906 -48.664062 57.421875 -50.125 C 58.847656 -51.59375 59.5625 -53.394531 59.5625 -55.53125 Z M 59.5625 -55.53125 "/></g></g></g><g fill="#ffffff" fill-opacity="1"><g transform="translate(1682.360447, 443.624998)"><g><path d="M 78.90625 0 L 78.90625 -29.421875 C 78.90625 -33.066406 79.039062 -36.804688 79.3125 -40.640625 C 79.59375 -44.472656 79.890625 -47.691406 80.203125 -50.296875 C 80.523438 -52.910156 80.726562 -54.578125 80.8125 -55.296875 L 80.328125 -55.296875 L 65.265625 0 L 44.734375 0 L 29.546875 -55.171875 L 29.078125 -55.171875 C 29.148438 -54.460938 29.363281 -52.820312 29.71875 -50.25 C 30.070312 -47.675781 30.40625 -44.472656 30.71875 -40.640625 C 31.039062 -36.804688 31.203125 -33.066406 31.203125 -29.421875 L 31.203125 0 L 7.125 0 L 7.125 -81.640625 L 44.140625 -81.640625 L 56.484375 -34.53125 L 56.953125 -34.53125 L 69.171875 -81.640625 L 104.890625 -81.640625 L 104.890625 0 Z M 78.90625 0 "/></g></g></g><g fill="#ffffff" fill-opacity="1"><g transform="translate(1794.357084, 443.624998)"><g><path d="M 9.96875 0 L 9.96875 -81.640625 L 36.1875 -81.640625 L 36.1875 0 Z M 9.96875 0 "/></g></g></g><g fill="#ffffff" fill-opacity="1"><g transform="translate(1840.508265, 443.624998)"><g><path d="M 55.765625 -60.75 L 55.765625 0 L 29.546875 0 L 29.546875 -60.75 L 2.734375 -60.75 L 2.734375 -81.640625 L 82.46875 -81.640625 L 82.46875 -60.75 Z M 55.765625 -60.75 "/></g></g></g><g fill="#ffffff" fill-opacity="1"><g transform="translate(1926.155664, 443.624998)"><g/></g></g><g fill="#ffffff" fill-opacity="1"><g transform="translate(907.808055, 576.374991)"><g><path d="M 54.578125 -81.640625 C 59.640625 -81.640625 64.148438 -80.472656 68.109375 -78.140625 C 72.066406 -75.804688 75.148438 -72.597656 77.359375 -68.515625 C 79.578125 -64.441406 80.6875 -59.875 80.6875 -54.8125 L 80.6875 -53.28125 C 80.6875 -48.21875 79.578125 -43.628906 77.359375 -39.515625 C 75.148438 -35.398438 72.066406 -32.175781 68.109375 -29.84375 C 64.148438 -27.507812 59.640625 -26.34375 54.578125 -26.34375 L 35 -26.34375 L 35 0 L 8.78125 0 L 8.78125 -81.640625 Z M 35 -45.4375 L 45.796875 -45.4375 C 48.566406 -45.4375 50.644531 -46.148438 52.03125 -47.578125 C 53.414062 -49.003906 54.109375 -50.941406 54.109375 -53.390625 L 54.109375 -54.34375 C 54.109375 -56.875 53.414062 -58.832031 52.03125 -60.21875 C 50.644531 -61.601562 48.566406 -62.296875 45.796875 -62.296875 L 35 -62.296875 Z M 35 -45.4375 "/></g></g></g><g fill="#ffffff" fill-opacity="1"><g transform="translate(993.466517, 576.374991)"><g><path d="M 86.265625 -56.59375 C 86.265625 -51.613281 84.914062 -47.101562 82.21875 -43.0625 C 79.53125 -39.03125 75.617188 -36.066406 70.484375 -34.171875 L 88.640625 0 L 59.203125 0 L 44.734375 -29.78125 L 35 -29.78125 L 35 0 L 8.78125 0 L 8.78125 -81.640625 L 58.734375 -81.640625 C 64.585938 -81.640625 69.585938 -80.507812 73.734375 -78.25 C 77.890625 -76 81.015625 -72.953125 83.109375 -69.109375 C 85.210938 -65.273438 86.265625 -61.101562 86.265625 -56.59375 Z M 59.5625 -55.53125 C 59.5625 -57.664062 58.847656 -59.441406 57.421875 -60.859375 C 56.003906 -62.285156 54.265625 -63 52.203125 -63 L 35 -63 L 35 -47.9375 L 52.203125 -47.9375 C 54.265625 -47.9375 56.003906 -48.664062 57.421875 -50.125 C 58.847656 -51.59375 59.5625 -53.394531 59.5625 -55.53125 Z M 59.5625 -55.53125 "/></g></g></g><g fill="#ffffff" fill-opacity="1"><g transform="translate(1085.768858, 576.374991)"><g><path d="M 49.359375 -83.0625 C 63.441406 -83.0625 74.316406 -79.460938 81.984375 -72.265625 C 89.660156 -65.066406 93.5 -54.582031 93.5 -40.8125 C 93.5 -27.050781 89.660156 -16.570312 81.984375 -9.375 C 74.316406 -2.175781 63.441406 1.421875 49.359375 1.421875 C 35.273438 1.421875 24.414062 -2.15625 16.78125 -9.3125 C 9.15625 -16.46875 5.34375 -26.96875 5.34375 -40.8125 C 5.34375 -54.65625 9.15625 -65.15625 16.78125 -72.3125 C 24.414062 -79.476562 35.273438 -83.0625 49.359375 -83.0625 Z M 49.359375 -63.484375 C 43.742188 -63.484375 39.472656 -61.78125 36.546875 -58.375 C 33.617188 -54.976562 32.15625 -50.390625 32.15625 -44.609375 L 32.15625 -37.015625 C 32.15625 -31.242188 33.617188 -26.65625 36.546875 -23.25 C 39.472656 -19.851562 43.742188 -18.15625 49.359375 -18.15625 C 54.972656 -18.15625 59.265625 -19.851562 62.234375 -23.25 C 65.203125 -26.65625 66.6875 -31.242188 66.6875 -37.015625 L 66.6875 -44.609375 C 66.6875 -50.390625 65.203125 -54.976562 62.234375 -58.375 C 59.265625 -61.78125 54.972656 -63.484375 49.359375 -63.484375 Z M 49.359375 -63.484375 "/></g></g></g><g fill="#ffffff" fill-opacity="1"><g transform="translate(1184.596425, 576.374991)"><g><path d="M 49.828125 -83.0625 C 57.660156 -83.0625 64.703125 -81.875 70.953125 -79.5 C 77.203125 -77.125 82.164062 -73.625 85.84375 -69 C 89.519531 -64.375 91.359375 -58.738281 91.359375 -52.09375 L 66.328125 -52.09375 C 66.328125 -55.488281 64.820312 -58.234375 61.8125 -60.328125 C 58.8125 -62.429688 55.175781 -63.484375 50.90625 -63.484375 C 44.726562 -63.484375 40.054688 -61.835938 36.890625 -58.546875 C 33.734375 -55.265625 32.15625 -50.617188 32.15625 -44.609375 L 32.15625 -37.015625 C 32.15625 -31.003906 33.734375 -26.359375 36.890625 -23.078125 C 40.054688 -19.796875 44.726562 -18.15625 50.90625 -18.15625 C 55.175781 -18.15625 58.8125 -19.160156 61.8125 -21.171875 C 64.820312 -23.191406 66.328125 -25.785156 66.328125 -28.953125 L 47.8125 -28.953125 L 47.8125 -45.5625 L 91.359375 -45.5625 L 91.359375 0 L 77.84375 0 L 75.234375 -8.0625 C 67.796875 -1.738281 58.0625 1.421875 46.03125 1.421875 C 32.507812 1.421875 22.347656 -2.113281 15.546875 -9.1875 C 8.742188 -16.269531 5.34375 -26.8125 5.34375 -40.8125 C 5.34375 -54.65625 9.195312 -65.15625 16.90625 -72.3125 C 24.625 -79.476562 35.597656 -83.0625 49.828125 -83.0625 Z M 49.828125 -83.0625 "/></g></g></g><g fill="#ffffff" fill-opacity="1"><g transform="translate(1283.424003, 576.374991)"><g><path d="M 86.265625 -56.59375 C 86.265625 -51.613281 84.914062 -47.101562 82.21875 -43.0625 C 79.53125 -39.03125 75.617188 -36.066406 70.484375 -34.171875 L 88.640625 0 L 59.203125 0 L 44.734375 -29.78125 L 35 -29.78125 L 35 0 L 8.78125 0 L 8.78125 -81.640625 L 58.734375 -81.640625 C 64.585938 -81.640625 69.585938 -80.507812 73.734375 -78.25 C 77.890625 -76 81.015625 -72.953125 83.109375 -69.109375 C 85.210938 -65.273438 86.265625 -61.101562 86.265625 -56.59375 Z M 59.5625 -55.53125 C 59.5625 -57.664062 58.847656 -59.441406 57.421875 -60.859375 C 56.003906 -62.285156 54.265625 -63 52.203125 -63 L 35 -63 L 35 -47.9375 L 52.203125 -47.9375 C 54.265625 -47.9375 56.003906 -48.664062 57.421875 -50.125 C 58.847656 -51.59375 59.5625 -53.394531 59.5625 -55.53125 Z M 59.5625 -55.53125 "/></g></g></g><g fill="#ffffff" fill-opacity="1"><g transform="translate(1375.726366, 576.374991)"><g><path d="M 63.484375 0 L 60.046875 -11.515625 L 31.4375 -11.515625 L 28 0 L 1.1875 0 L 30.96875 -81.640625 L 61.46875 -81.640625 L 91.25 0 Z M 36.90625 -29.78125 L 54.578125 -29.78125 L 46.03125 -58.859375 L 45.5625 -58.859375 Z M 36.90625 -29.78125 "/></g></g></g><g fill="#ffffff" fill-opacity="1"><g transform="translate(1468.02873, 576.374991)"><g><path d="M 78.90625 0 L 78.90625 -29.421875 C 78.90625 -33.066406 79.039062 -36.804688 79.3125 -40.640625 C 79.59375 -44.472656 79.890625 -47.691406 80.203125 -50.296875 C 80.523438 -52.910156 80.726562 -54.578125 80.8125 -55.296875 L 80.328125 -55.296875 L 65.265625 0 L 44.734375 0 L 29.546875 -55.171875 L 29.078125 -55.171875 C 29.148438 -54.460938 29.363281 -52.820312 29.71875 -50.25 C 30.070312 -47.675781 30.40625 -44.472656 30.71875 -40.640625 C 31.039062 -36.804688 31.203125 -33.066406 31.203125 -29.421875 L 31.203125 0 L 7.125 0 L 7.125 -81.640625 L 44.140625 -81.640625 L 56.484375 -34.53125 L 56.953125 -34.53125 L 69.171875 -81.640625 L 104.890625 -81.640625 L 104.890625 0 Z M 78.90625 0 "/></g></g></g><g fill="#ffffff" fill-opacity="1"><g transform="translate(1580.025412, 576.374991)"><g/></g></g><g fill="#ffffff" fill-opacity="1"><g transform="translate(1619.532704, 576.374991)"><g><path d="M 41.0625 -83.0625 C 47.46875 -83.0625 53.019531 -82.050781 57.71875 -80.03125 C 62.425781 -78.019531 66.066406 -75.15625 68.640625 -71.4375 C 71.210938 -67.71875 72.5 -63.40625 72.5 -58.5 C 72.5 -53.90625 71.347656 -49.75 69.046875 -46.03125 C 66.753906 -42.320312 63.867188 -39.039062 60.390625 -36.1875 C 56.910156 -33.34375 52.125 -29.863281 46.03125 -25.75 C 42.632812 -23.53125 39.867188 -21.628906 37.734375 -20.046875 L 73.453125 -20.046875 L 73.453125 0 L 5.8125 0 L 5.8125 -5.703125 C 5.8125 -9.890625 6.78125 -13.625 8.71875 -16.90625 C 10.65625 -20.1875 13.484375 -23.488281 17.203125 -26.8125 C 21.003906 -30.132812 26.460938 -34.644531 33.578125 -40.34375 C 39.273438 -44.851562 43.269531 -48.289062 45.5625 -50.65625 C 47.851562 -53.03125 49 -55.367188 49 -57.671875 C 49 -60.117188 48.148438 -62.171875 46.453125 -63.828125 C 44.753906 -65.492188 42.203125 -66.328125 38.796875 -66.328125 C 35.242188 -66.328125 32.4375 -65.296875 30.375 -63.234375 C 28.320312 -61.179688 27.296875 -58.492188 27.296875 -55.171875 L 27.296875 -52.796875 L 6.171875 -52.796875 C 6.085938 -53.429688 6.046875 -54.300781 6.046875 -55.40625 C 6.046875 -63.957031 9.03125 -70.703125 15 -75.640625 C 20.976562 -80.585938 29.664062 -83.0625 41.0625 -83.0625 Z M 41.0625 -83.0625 "/></g></g></g><g fill="#ffffff" fill-opacity="1"><g transform="translate(1698.665986, 576.374991)"><g><path d="M 39.625 -83.0625 C 52.363281 -83.0625 61.320312 -79.441406 66.5 -72.203125 C 71.6875 -64.960938 74.28125 -54.5 74.28125 -40.8125 C 74.28125 -27.132812 71.6875 -16.675781 66.5 -9.4375 C 61.320312 -2.195312 52.363281 1.421875 39.625 1.421875 C 26.8125 1.421875 17.8125 -2.195312 12.625 -9.4375 C 7.445312 -16.675781 4.859375 -27.132812 4.859375 -40.8125 C 4.859375 -54.5 7.445312 -64.960938 12.625 -72.203125 C 17.8125 -79.441406 26.8125 -83.0625 39.625 -83.0625 Z M 39.625 -67.046875 C 35.519531 -67.046875 32.59375 -65.460938 30.84375 -62.296875 C 29.101562 -59.128906 28.234375 -53.945312 28.234375 -46.75 L 28.234375 -35 C 28.234375 -27.726562 29.101562 -22.507812 30.84375 -19.34375 C 32.59375 -16.175781 35.519531 -14.59375 39.625 -14.59375 C 43.738281 -14.59375 46.625 -16.175781 48.28125 -19.34375 C 49.945312 -22.507812 50.78125 -27.726562 50.78125 -35 L 50.78125 -46.75 C 50.78125 -54.03125 49.945312 -59.234375 48.28125 -62.359375 C 46.625 -65.484375 43.738281 -67.046875 39.625 -67.046875 Z M 39.625 -67.046875 "/></g></g></g><g fill="#ffffff" fill-opacity="1"><g transform="translate(1777.799221, 576.374991)"><g><path d="M 41.0625 -83.0625 C 47.46875 -83.0625 53.019531 -82.050781 57.71875 -80.03125 C 62.425781 -78.019531 66.066406 -75.15625 68.640625 -71.4375 C 71.210938 -67.71875 72.5 -63.40625 72.5 -58.5 C 72.5 -53.90625 71.347656 -49.75 69.046875 -46.03125 C 66.753906 -42.320312 63.867188 -39.039062 60.390625 -36.1875 C 56.910156 -33.34375 52.125 -29.863281 46.03125 -25.75 C 42.632812 -23.53125 39.867188 -21.628906 37.734375 -20.046875 L 73.453125 -20.046875 L 73.453125 0 L 5.8125 0 L 5.8125 -5.703125 C 5.8125 -9.890625 6.78125 -13.625 8.71875 -16.90625 C 10.65625 -20.1875 13.484375 -23.488281 17.203125 -26.8125 C 21.003906 -30.132812 26.460938 -34.644531 33.578125 -40.34375 C 39.273438 -44.851562 43.269531 -48.289062 45.5625 -50.65625 C 47.851562 -53.03125 49 -55.367188 49 -57.671875 C 49 -60.117188 48.148438 -62.171875 46.453125 -63.828125 C 44.753906 -65.492188 42.203125 -66.328125 38.796875 -66.328125 C 35.242188 -66.328125 32.4375 -65.296875 30.375 -63.234375 C 28.320312 -61.179688 27.296875 -58.492188 27.296875 -55.171875 L 27.296875 -52.796875 L 6.171875 -52.796875 C 6.085938 -53.429688 6.046875 -54.300781 6.046875 -55.40625 C 6.046875 -63.957031 9.03125 -70.703125 15 -75.640625 C 20.976562 -80.585938 29.664062 -83.0625 41.0625 -83.0625 Z M 41.0625 -83.0625 "/></g></g></g><g fill="#ffffff" fill-opacity="1"><g transform="translate(1856.932457, 576.374991)"><g><path d="M 40.21875 -83.0625 C 46.707031 -83.0625 52.34375 -82.070312 57.125 -80.09375 C 61.914062 -78.113281 65.554688 -75.441406 68.046875 -72.078125 C 70.535156 -68.722656 71.78125 -64.988281 71.78125 -60.875 C 71.78125 -56.757812 70.671875 -53.0625 68.453125 -49.78125 C 66.242188 -46.5 63.398438 -44.179688 59.921875 -42.828125 L 59.921875 -42.359375 C 64.429688 -40.929688 67.929688 -38.457031 70.421875 -34.9375 C 72.910156 -31.414062 74.15625 -27.164062 74.15625 -22.1875 C 73.84375 -15.226562 70.816406 -9.550781 65.078125 -5.15625 C 59.347656 -0.769531 50.90625 1.421875 39.75 1.421875 C 32.070312 1.421875 25.625 0.394531 20.40625 -1.65625 C 15.1875 -3.71875 11.3125 -6.523438 8.78125 -10.078125 C 6.25 -13.640625 4.984375 -17.632812 4.984375 -22.0625 L 4.984375 -24.5625 L 25.859375 -24.5625 C 25.859375 -18.070312 29.972656 -14.828125 38.203125 -14.828125 C 46.429688 -14.828125 50.546875 -18.46875 50.546875 -25.75 C 50.546875 -28.519531 49.773438 -30.632812 48.234375 -32.09375 C 46.691406 -33.5625 44.691406 -34.296875 42.234375 -34.296875 L 33.578125 -34.296875 L 33.578125 -48.890625 L 40.34375 -48.890625 C 42.789062 -48.890625 44.785156 -49.617188 46.328125 -51.078125 C 47.878906 -52.546875 48.65625 -54.660156 48.65625 -57.421875 C 48.65625 -60.035156 47.722656 -62.25 45.859375 -64.0625 C 44.003906 -65.882812 41.453125 -66.796875 38.203125 -66.796875 C 34.804688 -66.796875 32.15625 -65.925781 30.25 -64.1875 C 28.351562 -62.445312 27.40625 -60.3125 27.40625 -57.78125 L 7.59375 -57.78125 L 7.59375 -60.75 C 7.59375 -64.863281 8.878906 -68.617188 11.453125 -72.015625 C 14.023438 -75.421875 17.78125 -78.113281 22.71875 -80.09375 C 27.664062 -82.070312 33.5 -83.0625 40.21875 -83.0625 Z M 40.21875 -83.0625 "/></g></g></g><g fill="#ffffff" fill-opacity="1"><g transform="translate(1936.058003, 576.374991)"><g/></g></g></svg>